<?xml version="1.0" encoding="utf-8"?>
<!-- Generator: Adobe Illustrator 27.0.0, SVG Export Plug-In . SVG Version: 6.00 Build 0)  -->
<svg version="1.1" id="Layer_1" xmlns="http://www.w3.org/2000/svg" xmlns:xlink="http://www.w3.org/1999/xlink" x="0px" y="0px"
	 viewBox="0 0 60 60" style="enable-background:new 0 0 60 60;" xml:space="preserve">
<style type="text/css">
	.st0{fill:none;stroke:#000000;stroke-width:2;stroke-linecap:round;stroke-miterlimit:10;}
	.st1{fill:none;stroke:#000000;stroke-width:2;stroke-miterlimit:10;}
</style>
<g>
	<path class="st0" d="M55.61,54.6v-2.67v0c0-2.61-2.11-4.72-4.72-4.72h-8.15c-2.61,0-4.72,2.11-4.72,4.72v0v2.67"/>
	<circle class="st1" cx="46.81" cy="40.06" r="3.72"/>
	<path class="st0" d="M21.99,54.6v-2.67v0c0-2.61-2.11-4.72-4.72-4.72H9.11c-2.61,0-4.72,2.11-4.72,4.72v0v2.67"/>
	<circle class="st1" cx="13.19" cy="40.06" r="3.72"/>
	<circle class="st1" cx="30.08" cy="21.11" r="14.42"/>
</g>
<path class="st1" d="M24.21,8.03c0,0,4.21,5.12,1.72,9.44s-3.83,1.51-5.68,5.78C18.4,27.53,16.91,27,16.91,27"/>
<path class="st1" d="M33.59,7.12c0,0-1.28,7.45,3.22,8.09s5.65-1.14,5.65-1.14"/>
<path class="st1" d="M44.44,22.36c0,0-2.42-0.57-4.15,0.77c-1.72,1.34-3.26,1.21-5.81,0.64c-2.55-0.57-4.89,1.85-4.49,4.6
	s2.25,5.77,2.64,6.32"/>
</svg>
