<?xml version="1.0" encoding="utf-8"?>
<!-- Generator: Adobe Illustrator 27.0.0, SVG Export Plug-In . SVG Version: 6.00 Build 0)  -->
<svg version="1.1" id="Layer_1" xmlns="http://www.w3.org/2000/svg" xmlns:xlink="http://www.w3.org/1999/xlink" x="0px" y="0px"
	 viewBox="0 0 60 60" style="enable-background:new 0 0 60 60;" xml:space="preserve">
<style type="text/css">
	.st0{fill:none;stroke:#200E32;stroke-width:2;stroke-miterlimit:10;}
	.st1{fill:none;stroke:#200E32;stroke-width:2;stroke-miterlimit:10;enable-background:new    ;}
</style>
<g transform="translate(2 2)">
	<path class="st0" d="M23.44,12.09c0.13,0.26,0.21,0.53,0.25,0.81l0.69,10.22l0,0l0.34,5.14c0,0.53,0.09,1.05,0.25,1.56
		c0.41,0.98,1.4,1.6,2.48,1.56l16.44-1.08c0.71-0.01,1.4,0.25,1.91,0.74c0.43,0.4,0.7,0.93,0.79,1.5l0.03,0.35
		c-0.68,9.42-7.6,17.27-17,19.3S10.57,49.94,5.93,41.67c-1.34-2.4-2.18-5.04-2.46-7.77c-0.12-0.81-0.17-1.62-0.16-2.44
		c-0.01-10.1,7.18-18.83,17.24-20.93C21.77,10.34,22.95,10.98,23.44,12.09z"/>
	<path class="st1" d="M30.15,3.31C41.41,3.6,50.87,11.69,52.69,22.6l-0.02,0.08l0,0l-0.05,0.12l0.01,0.32
		c-0.03,0.43-0.19,0.83-0.47,1.17c-0.29,0.34-0.7,0.58-1.14,0.67l-0.27,0.04l-18.96,1.23c-0.63,0.06-1.26-0.14-1.73-0.56
		c-0.39-0.35-0.64-0.82-0.71-1.33L28.07,5.4c-0.02-0.06-0.02-0.13,0-0.2c0.02-0.52,0.25-1.02,0.64-1.37S29.62,3.29,30.15,3.31z"/>
</g>
</svg>
