<?xml version="1.0" encoding="utf-8"?>
<!-- Generator: Adobe Illustrator 27.0.0, SVG Export Plug-In . SVG Version: 6.00 Build 0)  -->
<svg version="1.1" id="Layer_1" xmlns="http://www.w3.org/2000/svg" xmlns:xlink="http://www.w3.org/1999/xlink" x="0px" y="0px"
	 viewBox="0 0 60 60" style="enable-background:new 0 0 60 60;" xml:space="preserve">
<path d="M43.55,3.83c-6.76,0-12.21,5.5-12.21,12.24c0,6.75,5.45,12.24,12.21,12.24s12.28-5.49,12.28-12.24
	c0-0.11-0.02-0.22-0.07-0.32c0,0,0,0,0,0C55.58,9.17,50.2,3.84,43.55,3.83L43.55,3.83z M43.55,5.47c5.88,0,10.64,4.75,10.64,10.61
	c0,5.86-4.76,10.61-10.64,10.61c-5.83,0.01-10.57-4.71-10.58-10.55c0-0.02,0-0.04,0-0.07C32.98,10.21,37.67,5.47,43.55,5.47z
	 M22.66,15.26c-4.22,0-7.64,3.4-7.64,7.6v4.27l-0.88-0.88c-0.15-0.16-0.37-0.25-0.59-0.25c-0.45,0-0.81,0.37-0.81,0.82
	c0,0.22,0.09,0.43,0.24,0.58l2.31,2.31c0.32,0.32,0.84,0.32,1.15,0l2.31-2.31c0.32-0.31,0.33-0.83,0.02-1.15s-0.83-0.33-1.15-0.02
	c-0.01,0.01-0.01,0.01-0.02,0.02l-0.95,0.95v-4.33c0-3.32,2.66-5.97,6.01-5.97h6.23c0.45,0,0.82-0.37,0.82-0.82
	c0-0.45-0.37-0.82-0.82-0.82H22.66z M43.54,29.95c-0.21,0-0.41,0.09-0.56,0.24l-2.31,2.31c-0.32,0.32-0.32,0.84,0,1.16
	c0.32,0.32,0.84,0.32,1.16,0l0.94-0.95v4.33c0.01,3.29-2.65,5.96-5.95,5.97c-0.02,0-0.04,0-0.06,0h-6.23
	c-0.45,0-0.82,0.37-0.82,0.82s0.37,0.82,0.82,0.82h6.23c4.22,0,7.64-3.4,7.64-7.6v-4.27l0.89,0.89c0.32,0.32,0.84,0.32,1.16,0
	s0.32-0.84,0-1.16l-2.31-2.31C43.98,30.04,43.76,29.95,43.54,29.95L43.54,29.95z M15.8,31.59c-6.76,0-12.21,5.5-12.21,12.24
	c0,6.75,5.45,12.24,12.21,12.24s12.28-5.49,12.28-12.24c0-0.11-0.02-0.22-0.07-0.32c0,0,0,0,0,0C27.83,36.92,22.45,31.59,15.8,31.59
	C15.8,31.59,15.8,31.59,15.8,31.59z M15.8,33.22c5.88,0,10.64,4.75,10.64,10.61c0,5.86-4.76,10.61-10.64,10.61
	C9.97,54.45,5.23,49.73,5.22,43.9c0-0.02,0-0.04,0-0.07C5.2,38,9.91,33.25,15.74,33.22C15.76,33.22,15.78,33.22,15.8,33.22z
	 M15.82,36.48L15.82,36.48c-0.45,0.01-0.81,0.38-0.8,0.83c0,0,0,0,0,0v0.72c-1.6,0.33-2.85,1.63-2.85,3.26c0,1.9,1.7,3.35,3.67,3.35
	c1.19,0,2.04,0.81,2.04,1.72s-0.85,1.72-2.04,1.72s-2.04-0.8-2.04-1.72c0.02-1.1-1.65-1.1-1.63,0c0,1.67,1.28,2.91,2.85,3.26v0.72
	c0,0.45,0.37,0.82,0.82,0.82c0.45,0,0.82-0.37,0.82-0.82v-0.73c1.6-0.34,2.85-1.63,2.85-3.26c0-1.9-1.7-3.35-3.67-3.35
	c-1.19,0-2.04-0.81-2.04-1.72c0-0.9,0.83-1.69,1.99-1.71c0.03,0,0.06,0,0.09,0c1.17,0.02,1.99,0.81,1.99,1.71
	c-0.02,1.11,1.65,1.11,1.63,0c0-1.67-1.28-2.91-2.85-3.26v-0.71c0.01-0.45-0.35-0.82-0.8-0.83C15.84,36.48,15.83,36.48,15.82,36.48z
	"/>
<path d="M45.02,15.82h-0.71v-0.71c0-0.39-0.32-0.71-0.71-0.71c-0.39,0-0.71,0.32-0.71,0.71v0.71h-0.71c-0.39,0-0.71,0.32-0.71,0.71
	c0,0.39,0.32,0.71,0.71,0.71h0.71v0.71c0,0.39,0.32,0.71,0.71,0.71c0.39,0,0.71-0.32,0.71-0.71v-0.71h0.71
	c0.39,0,0.71-0.32,0.71-0.71C45.73,16.13,45.41,15.82,45.02,15.82z M49.38,11.57c-1.56-1.54-4.01-1.72-5.78-0.42
	c-1.97-1.46-4.75-1.05-6.21,0.91c-1.32,1.77-1.13,4.24,0.43,5.8l4.25,4.28c0.83,0.83,2.17,0.83,3,0l4.25-4.28
	c1.75-1.71,1.79-4.52,0.07-6.28C49.39,11.58,49.38,11.57,49.38,11.57z M48.38,16.85l-4.25,4.25c-0.28,0.28-0.72,0.28-1,0
	c0,0,0,0,0,0l-4.25-4.25c-1.15-1.18-1.15-3.07,0-4.25c1.18-1.16,3.07-1.16,4.25,0c0.28,0.28,0.72,0.28,1,0c0,0,0,0,0,0
	c1.18-1.16,3.07-1.16,4.25,0c1.16,1.18,1.16,3.08,0,4.26V16.85z"/>
</svg>
