<?xml version="1.0" encoding="utf-8"?>
<!-- Generator: Adobe Illustrator 27.0.0, SVG Export Plug-In . SVG Version: 6.00 Build 0)  -->
<svg version="1.1" id="Layer_1" xmlns="http://www.w3.org/2000/svg" xmlns:xlink="http://www.w3.org/1999/xlink" x="0px" y="0px"
	 viewBox="0 0 100 100" style="enable-background:new 0 0 100 100;" xml:space="preserve">
<style type="text/css">
	.st0{fill:url(#SVGID_1_);}
	.st1{fill:url(#SVGID_00000108999984918537480530000013708454653335101079_);}
	.st2{fill:none;stroke:#FFFFFF;stroke-width:3;stroke-miterlimit:10;}
</style>
<g>
	
		<linearGradient id="SVGID_1_" gradientUnits="userSpaceOnUse" x1="95.1391" y1="14.7882" x2="17.4063" y2="37.0584" gradientTransform="matrix(1 0 0 -1 0 102)">
		<stop  offset="1.098245e-03" style="stop-color:#4863E7"/>
		<stop  offset="0.9216" style="stop-color:#0FC6FB"/>
	</linearGradient>
	<path class="st0" d="M88.22,70.2c-1.79,5.68-4.94,11.02-9.44,15.52c-14.95,14.95-39.21,14.95-54.16,0
		c-12.03-12.03-14.38-30.07-7.06-44.45C13.39,54.45,16.54,69.45,27,79.91c14.95,14.95,39.21,14.95,54.16,0
		C84.08,76.99,86.44,73.7,88.22,70.2z"/>
	
		<linearGradient id="SVGID_00000038407865487966837210000003809322036015135140_" gradientUnits="userSpaceOnUse" x1="15.7729" y1="39.3205" x2="89" y2="39.3205" gradientTransform="matrix(1 0 0 -1 0 102)">
		<stop  offset="1.098245e-03" style="stop-color:#4863E7"/>
		<stop  offset="0.9216" style="stop-color:#0FC6FB"/>
	</linearGradient>
	<path style="fill:url(#SVGID_00000038407865487966837210000003809322036015135140_);" d="M89,67.34c-0.22,0.96-0.48,1.92-0.78,2.87
		c-1.78,3.5-4.13,6.78-7.06,9.71c-14.95,14.95-39.21,14.95-54.16,0c-10.46-10.46-13.6-25.45-9.44-38.64
		c1.26-2.47,2.8-4.83,4.63-7.04C19.3,46.69,22.71,60.3,32.41,70.01c14.95,14.95,39.21,14.96,54.17,0
		C87.43,69.14,88.24,68.26,89,67.34z"/>
	<g>
		<g>
			<g>
				<defs>
					<path id="SVGID_00000175285199729536840350000008006528064704583070_" d="M40.07,6.73c0,3.66-0.39,7.37,0.09,10.96
						c0.84,6.29,4.29,11.48,8.06,16.43C53,40.4,57.03,46.9,56.39,55.34c-0.82,10.94-9.24,19.74-19.85,20.43
						c-10.81,0.7-20.21-6.63-22.51-17.45c-1.41-6.64-0.38-13.03,1.98-19.24C20.9,26.22,29.41,15.9,40.07,6.73z"/>
				</defs>
				
					<radialGradient id="SVGID_00000027581943461491187950000008191918899571512472_" cx="51.6274" cy="23.6769" r="57.4285" gradientUnits="userSpaceOnUse">
					<stop  offset="0.064" style="stop-color:#FFFFFF"/>
					<stop  offset="0.1546" style="stop-color:#FFBDD5"/>
					<stop  offset="0.2449" style="stop-color:#FF84B1"/>
					<stop  offset="0.3311" style="stop-color:#FF5493"/>
					<stop  offset="0.4126" style="stop-color:#FF307B"/>
					<stop  offset="0.4883" style="stop-color:#FF156B"/>
					<stop  offset="0.5559" style="stop-color:#FF0661"/>
					<stop  offset="0.6087" style="stop-color:#FF005D"/>
					<stop  offset="0.7033" style="stop-color:#FC005A"/>
					<stop  offset="0.7774" style="stop-color:#F20050"/>
					<stop  offset="0.8445" style="stop-color:#E10040"/>
					<stop  offset="0.9075" style="stop-color:#CA002A"/>
					<stop  offset="0.967" style="stop-color:#AC000D"/>
					<stop  offset="0.9891" style="stop-color:#9F0000"/>
				</radialGradient>
				
					<use xlink:href="#SVGID_00000175285199729536840350000008006528064704583070_"  style="overflow:visible;fill:url(#SVGID_00000027581943461491187950000008191918899571512472_);"/>
				<clipPath id="SVGID_00000183224285552789229600000011526738892584943284_">
					<use xlink:href="#SVGID_00000175285199729536840350000008006528064704583070_"  style="overflow:visible;"/>
				</clipPath>
			</g>
		</g>
		<path class="st2" d="M40.07,6.73c0,3.66-0.39,7.37,0.09,10.96c0.84,6.29,4.29,11.48,8.06,16.43C53,40.4,57.03,46.9,56.39,55.34
			c-0.82,10.94-9.24,19.74-19.85,20.43c-10.81,0.7-20.21-6.63-22.51-17.45c-1.41-6.64-0.38-13.03,1.98-19.24
			C20.9,26.22,29.41,15.9,40.07,6.73z"/>
	</g>
</g>
</svg>
