<?xml version="1.0" encoding="utf-8"?>
<!-- Generator: Adobe Illustrator 27.0.0, SVG Export Plug-In . SVG Version: 6.00 Build 0)  -->
<svg version="1.1" id="Layer_1" xmlns="http://www.w3.org/2000/svg" xmlns:xlink="http://www.w3.org/1999/xlink" x="0px" y="0px"
	 viewBox="0 0 1530.06 260" style="enable-background:new 0 0 1530.06 260;" xml:space="preserve">
<style type="text/css">
	.st0{fill:url(#SVGID_1_);}
	.st1{fill:url(#SVGID_00000010284458815787155450000014191557283502268593_);}
	.st2{fill:url(#SVGID_00000156572208266360176780000013444141890532763059_);}
	.st3{fill:url(#SVGID_00000028293160379343407070000002907260814910158465_);}
	.st4{fill:url(#SVGID_00000031175398983176051250000007544227085106079379_);}
	.st5{fill:url(#SVGID_00000014593891776125365540000002235837564528628393_);}
	.st6{fill:url(#SVGID_00000022526616864585325050000017338441989487294350_);}
	.st7{fill:url(#SVGID_00000009587828820567588600000009692323923194327686_);}
	.st8{fill:url(#SVGID_00000174581941110825456040000011718283444706907053_);}
	.st9{fill:url(#SVGID_00000062189821371967537770000007417534229435223447_);}
	.st10{fill:url(#SVGID_00000039101315120287652690000013524302124247645865_);}
	.st11{fill:url(#SVGID_00000109711408717522626520000013889221241886290591_);}
	.st12{fill:url(#SVGID_00000108275707792270795240000015278932411553811843_);}
	.st13{fill:url(#SVGID_00000060722072326221993500000009999969616084874173_);}
	.st14{fill:url(#SVGID_00000054241874286920760030000016354194241273890472_);}
	.st15{fill:url(#SVGID_00000173878449945628688130000008646337192882769554_);}
	.st16{fill:url(#SVGID_00000075138286459245966790000009859879604519684014_);}
	.st17{fill:url(#SVGID_00000082351227315439659960000000670671913788552359_);}
	.st18{fill:url(#SVGID_00000148620164537799916490000006846238125178357173_);}
	.st19{fill:url(#SVGID_00000176025155351888637660000008918715075855656110_);}
	.st20{fill:url(#SVGID_00000175282514551640092410000010585710763988101557_);}
	.st21{fill:url(#SVGID_00000086657377840566201680000004191266095769608107_);}
	.st22{fill:url(#SVGID_00000139983291760037085720000005676204935137386891_);}
	.st23{fill:url(#SVGID_00000029734863694063509490000014963394160840212887_);}
</style>
<g>
	<radialGradient id="SVGID_1_" cx="897.8936" cy="22.4255" r="708.802" gradientUnits="userSpaceOnUse">
		<stop  offset="0" style="stop-color:#FFFFFF"/>
		<stop  offset="0.1013" style="stop-color:#FFBDD5"/>
		<stop  offset="0.2021" style="stop-color:#FF84B1"/>
		<stop  offset="0.2985" style="stop-color:#FF5493"/>
		<stop  offset="0.3896" style="stop-color:#FF307B"/>
		<stop  offset="0.4741" style="stop-color:#FF156B"/>
		<stop  offset="0.5496" style="stop-color:#FF0661"/>
		<stop  offset="0.6087" style="stop-color:#FF005D"/>
		<stop  offset="0.7033" style="stop-color:#FC005A"/>
		<stop  offset="0.7774" style="stop-color:#F20050"/>
		<stop  offset="0.8445" style="stop-color:#E10040"/>
		<stop  offset="0.9075" style="stop-color:#CA002A"/>
		<stop  offset="0.967" style="stop-color:#AC000D"/>
		<stop  offset="0.9891" style="stop-color:#9F0000"/>
	</radialGradient>
	<path class="st0" d="M248.46,116.69c0-34.01,28.09-61.09,62.44-61.09c14.38,0,28.09,4.91,38.58,13.2c4.4,3.22,5.08,9.48,1.86,13.71
		c-3.22,4.06-9.48,4.91-13.71,1.52c-7.28-5.58-16.58-9.14-26.74-9.14c-12.18,0-22.84,4.57-30.46,12.35
		c-7.95,7.62-12.69,17.94-12.69,29.44c0,11.17,4.74,21.49,12.69,29.11c7.62,7.78,18.28,12.35,30.46,12.35
		c8.46,0,16.41-2.54,23.18-6.43v-23.18h-24.2c-5.25,0-9.65-4.4-9.65-9.65c0-5.42,4.4-9.48,9.65-9.48h33.34c0.17,0,0.17,0,0.17,0
		c0.17,0,0.17,0,0.17,0c5.42,0,9.81,4.06,9.81,9.48v37.4c0,1.18-0.34,1.86-0.51,2.88c-0.17,0.34-0.17,0.51-0.34,0.85v0.17
		c-0.51,1.52-1.52,2.88-3.22,4.06c-10.66,8.29-24.03,13.2-38.41,13.2C276.55,177.44,248.46,150.54,248.46,116.69z"/>
	
		<radialGradient id="SVGID_00000155853628436143950310000010642550487210088832_" cx="897.8936" cy="22.4255" r="708.802" gradientUnits="userSpaceOnUse">
		<stop  offset="0" style="stop-color:#FFFFFF"/>
		<stop  offset="0.1013" style="stop-color:#FFBDD5"/>
		<stop  offset="0.2021" style="stop-color:#FF84B1"/>
		<stop  offset="0.2985" style="stop-color:#FF5493"/>
		<stop  offset="0.3896" style="stop-color:#FF307B"/>
		<stop  offset="0.4741" style="stop-color:#FF156B"/>
		<stop  offset="0.5496" style="stop-color:#FF0661"/>
		<stop  offset="0.6087" style="stop-color:#FF005D"/>
		<stop  offset="0.7033" style="stop-color:#FC005A"/>
		<stop  offset="0.7774" style="stop-color:#F20050"/>
		<stop  offset="0.8445" style="stop-color:#E10040"/>
		<stop  offset="0.9075" style="stop-color:#CA002A"/>
		<stop  offset="0.967" style="stop-color:#AC000D"/>
		<stop  offset="0.9891" style="stop-color:#9F0000"/>
	</radialGradient>
	<path style="fill:url(#SVGID_00000155853628436143950310000010642550487210088832_);" d="M400.08,58.99c5.25,0,9.48,4.23,9.48,9.31
		v99.84c0,5.08-4.23,9.31-9.48,9.31c-5.08,0-9.31-4.23-9.31-9.31V68.3C390.77,63.22,395,58.99,400.08,58.99z"/>
	
		<radialGradient id="SVGID_00000085231425153265066690000005875158788890242192_" cx="897.8936" cy="22.4255" r="708.802" gradientUnits="userSpaceOnUse">
		<stop  offset="0" style="stop-color:#FFFFFF"/>
		<stop  offset="0.1013" style="stop-color:#FFBDD5"/>
		<stop  offset="0.2021" style="stop-color:#FF84B1"/>
		<stop  offset="0.2985" style="stop-color:#FF5493"/>
		<stop  offset="0.3896" style="stop-color:#FF307B"/>
		<stop  offset="0.4741" style="stop-color:#FF156B"/>
		<stop  offset="0.5496" style="stop-color:#FF0661"/>
		<stop  offset="0.6087" style="stop-color:#FF005D"/>
		<stop  offset="0.7033" style="stop-color:#FC005A"/>
		<stop  offset="0.7774" style="stop-color:#F20050"/>
		<stop  offset="0.8445" style="stop-color:#E10040"/>
		<stop  offset="0.9075" style="stop-color:#CA002A"/>
		<stop  offset="0.967" style="stop-color:#AC000D"/>
		<stop  offset="0.9891" style="stop-color:#9F0000"/>
	</radialGradient>
	<path style="fill:url(#SVGID_00000085231425153265066690000005875158788890242192_);" d="M465.23,177.44
		c-19.29,0-35.2-15.91-35.2-35.2V101.8c0-4.74,4.06-8.97,8.97-8.97c5.08,0,8.97,4.23,8.97,8.97v40.44c0,9.65,7.62,17.26,17.26,17.26
		c9.81,0,17.6-7.61,17.77-17.26V101.8c0-4.74,3.72-8.97,8.8-8.97c4.74,0,9.14,4.23,9.14,8.97v40.44
		C500.94,161.54,484.69,177.44,465.23,177.44z"/>
	
		<radialGradient id="SVGID_00000044877165812760028570000014580351911545761715_" cx="897.8936" cy="22.4255" r="708.802" gradientUnits="userSpaceOnUse">
		<stop  offset="0" style="stop-color:#FFFFFF"/>
		<stop  offset="0.1013" style="stop-color:#FFBDD5"/>
		<stop  offset="0.2021" style="stop-color:#FF84B1"/>
		<stop  offset="0.2985" style="stop-color:#FF5493"/>
		<stop  offset="0.3896" style="stop-color:#FF307B"/>
		<stop  offset="0.4741" style="stop-color:#FF156B"/>
		<stop  offset="0.5496" style="stop-color:#FF0661"/>
		<stop  offset="0.6087" style="stop-color:#FF005D"/>
		<stop  offset="0.7033" style="stop-color:#FC005A"/>
		<stop  offset="0.7774" style="stop-color:#F20050"/>
		<stop  offset="0.8445" style="stop-color:#E10040"/>
		<stop  offset="0.9075" style="stop-color:#CA002A"/>
		<stop  offset="0.967" style="stop-color:#AC000D"/>
		<stop  offset="0.9891" style="stop-color:#9F0000"/>
	</radialGradient>
	<path style="fill:url(#SVGID_00000044877165812760028570000014580351911545761715_);" d="M529.53,135.31
		c0-23.52,19.63-42.31,42.98-42.47c10.15,0,19.63,3.72,26.91,9.31c3.89,3.05,4.57,8.8,1.86,12.52c-3.38,4.06-8.8,4.74-12.69,1.69
		c-4.4-3.22-9.81-5.42-16.08-5.42c-13.71,0-25.04,11.34-25.04,24.37c0,13.03,11.34,24.2,25.04,24.2c6.09,0,11.68-2.2,16.08-5.42
		c3.72-2.88,9.31-2.2,12.69,1.86c2.71,3.72,2.03,9.14-1.86,12.52c-7.28,5.25-16.75,8.97-26.91,8.97
		C549.16,177.44,529.53,158.49,529.53,135.31z"/>
	
		<radialGradient id="SVGID_00000145018702352553016520000011963424363317265319_" cx="897.8936" cy="22.4255" r="708.802" gradientUnits="userSpaceOnUse">
		<stop  offset="0" style="stop-color:#FFFFFF"/>
		<stop  offset="0.1013" style="stop-color:#FFBDD5"/>
		<stop  offset="0.2021" style="stop-color:#FF84B1"/>
		<stop  offset="0.2985" style="stop-color:#FF5493"/>
		<stop  offset="0.3896" style="stop-color:#FF307B"/>
		<stop  offset="0.4741" style="stop-color:#FF156B"/>
		<stop  offset="0.5496" style="stop-color:#FF0661"/>
		<stop  offset="0.6087" style="stop-color:#FF005D"/>
		<stop  offset="0.7033" style="stop-color:#FC005A"/>
		<stop  offset="0.7774" style="stop-color:#F20050"/>
		<stop  offset="0.8445" style="stop-color:#E10040"/>
		<stop  offset="0.9075" style="stop-color:#CA002A"/>
		<stop  offset="0.967" style="stop-color:#AC000D"/>
		<stop  offset="0.9891" style="stop-color:#9F0000"/>
	</radialGradient>
	<path style="fill:url(#SVGID_00000145018702352553016520000011963424363317265319_);" d="M637.33,165.09
		c-7.28-7.45-11.68-17.94-11.68-29.78c0-11.51,4.4-21.49,11.68-29.61c7.62-7.95,17.43-12.86,29.11-12.86
		c11.17,0,21.32,4.91,28.26,12.86c7.62,8.12,11.85,18.11,11.85,29.61c0,11.85-4.23,22.34-11.85,29.78
		c-6.94,7.95-17.09,12.86-28.26,12.86C654.76,177.95,644.94,173.04,637.33,165.09z M644.09,135.31c0,7.28,2.2,13.2,6.09,17.94
		c4.23,4.06,9.82,6.26,16.25,6.26c5.92,0,11.34-2.2,15.57-6.26c4.23-4.74,6.6-10.66,6.6-17.94c0-6.94-2.37-13.03-6.6-17.6
		c-4.23-3.72-9.65-6.43-15.57-6.43c-6.43,0-12.01,2.71-16.25,6.43C646.29,122.28,644.09,128.37,644.09,135.31z"/>
	
		<radialGradient id="SVGID_00000020381800366170442990000002745931645853729954_" cx="897.8936" cy="22.4255" r="708.802" gradientUnits="userSpaceOnUse">
		<stop  offset="0" style="stop-color:#FFFFFF"/>
		<stop  offset="0.1013" style="stop-color:#FFBDD5"/>
		<stop  offset="0.2021" style="stop-color:#FF84B1"/>
		<stop  offset="0.2985" style="stop-color:#FF5493"/>
		<stop  offset="0.3896" style="stop-color:#FF307B"/>
		<stop  offset="0.4741" style="stop-color:#FF156B"/>
		<stop  offset="0.5496" style="stop-color:#FF0661"/>
		<stop  offset="0.6087" style="stop-color:#FF005D"/>
		<stop  offset="0.7033" style="stop-color:#FC005A"/>
		<stop  offset="0.7774" style="stop-color:#F20050"/>
		<stop  offset="0.8445" style="stop-color:#E10040"/>
		<stop  offset="0.9075" style="stop-color:#CA002A"/>
		<stop  offset="0.967" style="stop-color:#AC000D"/>
		<stop  offset="0.9891" style="stop-color:#9F0000"/>
	</radialGradient>
	<path style="fill:url(#SVGID_00000020381800366170442990000002745931645853729954_);" d="M731.24,153.25
		c3.05-4.06,8.97-4.57,12.69-1.35c4.4,3.72,12.01,7.61,18.61,7.45c4.57,0,8.8-1.52,11.51-3.21c2.37-2.03,3.05-3.72,3.05-5.08
		c0-0.85-0.17-1.18-0.51-1.69c-0.17-0.51-0.85-1.18-2.2-2.03c-2.37-1.69-7.45-3.55-13.54-4.74h-0.17
		c-5.25-1.02-10.32-2.37-14.72-4.4c-4.57-2.2-8.63-5.25-11.68-9.81c-1.86-3.05-2.88-6.77-2.88-10.66c0-7.78,4.4-14.38,9.98-18.61
		c5.92-4.06,13.03-6.26,20.81-6.26c11.68,0,19.97,5.58,25.38,9.31c4.06,2.71,5.25,8.29,2.71,12.52c-2.71,4.06-8.29,5.25-12.52,2.37
		c-5.42-3.55-10.15-6.26-15.57-6.26c-4.23,0-7.95,1.35-10.15,3.05c-2.2,1.52-2.71,3.05-2.71,3.89c0,0.68,0,0.85,0.34,1.35
		c0.17,0.34,0.68,1.02,1.86,1.69c2.2,1.52,6.6,3.05,12.35,4.06l0.17,0.17h0.17c5.58,1.02,10.83,2.54,15.74,4.91
		c4.57,2.03,9.14,5.25,12.01,9.98c2.03,3.38,3.22,7.28,3.22,11.17c0,8.29-4.57,15.23-10.66,19.63c-6.09,4.23-13.71,6.77-22,6.77
		c-13.2-0.17-23.35-6.26-30.12-11.68C728.71,162.72,728.2,156.97,731.24,153.25z"/>
	
		<radialGradient id="SVGID_00000052790134607926001060000016357614972923009166_" cx="897.8936" cy="22.4255" r="708.802" gradientUnits="userSpaceOnUse">
		<stop  offset="0" style="stop-color:#FFFFFF"/>
		<stop  offset="0.1013" style="stop-color:#FFBDD5"/>
		<stop  offset="0.2021" style="stop-color:#FF84B1"/>
		<stop  offset="0.2985" style="stop-color:#FF5493"/>
		<stop  offset="0.3896" style="stop-color:#FF307B"/>
		<stop  offset="0.4741" style="stop-color:#FF156B"/>
		<stop  offset="0.5496" style="stop-color:#FF0661"/>
		<stop  offset="0.6087" style="stop-color:#FF005D"/>
		<stop  offset="0.7033" style="stop-color:#FC005A"/>
		<stop  offset="0.7774" style="stop-color:#F20050"/>
		<stop  offset="0.8445" style="stop-color:#E10040"/>
		<stop  offset="0.9075" style="stop-color:#CA002A"/>
		<stop  offset="0.967" style="stop-color:#AC000D"/>
		<stop  offset="0.9891" style="stop-color:#9F0000"/>
	</radialGradient>
	<path style="fill:url(#SVGID_00000052790134607926001060000016357614972923009166_);" d="M812.64,135.14
		c0.17-23.01,18.11-42.31,41.29-42.31c22,0,39.43,16.41,40.78,39.26c0,0.17,0,0.51,0,0.85s0,1.18-0.17,1.52
		c-0.51,4.06-4.06,6.77-8.8,6.77h-53.81c0.85,3.89,2.71,8.29,5.75,11.17c3.55,4.06,10.32,7.11,16.25,7.62
		c6.09,0.51,13.37-1.02,17.6-4.23c3.55-3.72,10.49-3.21,12.69-0.51c2.2,2.37,3.89,7.45,0,11c-8.29,7.62-18.28,11.17-30.29,11.17
		C830.74,177.27,812.81,158.15,812.64,135.14z M831.08,126.85h47.89c-1.69-6.77-10.32-16.75-25.04-17.94
		C839.54,109.59,832.44,119.91,831.08,126.85z"/>
	
		<radialGradient id="SVGID_00000178196587407515393960000016973573144929885587_" cx="908.1064" cy="71.4468" r="236.4514" gradientUnits="userSpaceOnUse">
		<stop  offset="0.1176" style="stop-color:#FFFFFF"/>
		<stop  offset="0.2743" style="stop-color:#FF6EA3"/>
		<stop  offset="0.6085" style="stop-color:#B14BAD"/>
		<stop  offset="0.7874" style="stop-color:#8655C5"/>
		<stop  offset="0.9698" style="stop-color:#5161E2"/>
		<stop  offset="0.9989" style="stop-color:#4863E7"/>
	</radialGradient>
	<path style="fill:url(#SVGID_00000178196587407515393960000016973573144929885587_);" d="M983.89,149.52h-41.12l-8.29,22
		c-1.52,3.72-5.08,5.92-8.8,5.92c-1.18,0-2.2-0.17-3.21-0.51c-4.91-1.86-7.28-7.28-5.58-12.18l37.4-99.67
		c1.52-3.72,5.25-6.09,8.97-5.92c3.89-0.17,7.45,2.2,8.97,5.92l37.4,99.67c1.69,4.91-0.68,10.32-5.58,12.18
		c-0.85,0.34-2.03,0.51-3.21,0.51c-3.72,0-7.28-2.2-8.63-5.92L983.89,149.52z M976.95,130.91l-13.71-36.38l-13.71,36.38H976.95z"/>
	
		<radialGradient id="SVGID_00000050661314544377609900000010376039997885306290_" cx="908.1064" cy="71.4468" r="236.4514" gradientUnits="userSpaceOnUse">
		<stop  offset="0.1176" style="stop-color:#FFFFFF"/>
		<stop  offset="0.2743" style="stop-color:#FF6EA3"/>
		<stop  offset="0.6085" style="stop-color:#B14BAD"/>
		<stop  offset="0.7874" style="stop-color:#8655C5"/>
		<stop  offset="0.9698" style="stop-color:#5161E2"/>
		<stop  offset="0.9989" style="stop-color:#4863E7"/>
	</radialGradient>
	<path style="fill:url(#SVGID_00000050661314544377609900000010376039997885306290_);" d="M1033.98,68.3c0-5.25,4.06-9.31,9.31-9.31
		c5.08,0,9.48,4.06,9.48,9.31v99.84c0,5.25-4.4,9.31-9.48,9.31c-5.25,0-9.31-4.06-9.31-9.31V68.3z"/>
	
		<radialGradient id="SVGID_00000090273024399908020690000000729332770649331613_" cx="1542.3191" cy="73.4894" r="619.0065" gradientUnits="userSpaceOnUse">
		<stop  offset="0.1176" style="stop-color:#FFFFFF"/>
		<stop  offset="0.2743" style="stop-color:#FF6EA3"/>
		<stop  offset="0.6085" style="stop-color:#B14BAD"/>
		<stop  offset="0.7874" style="stop-color:#8655C5"/>
		<stop  offset="0.9698" style="stop-color:#5161E2"/>
		<stop  offset="0.9989" style="stop-color:#4863E7"/>
	</radialGradient>
	<path style="fill:url(#SVGID_00000090273024399908020690000000729332770649331613_);" d="M1093.21,153.41
		c6.94,0,12.69,5.75,12.69,12.69c0,6.94-5.75,12.52-12.69,12.52c-6.94,0-12.52-5.58-12.52-12.52
		C1080.68,159.17,1086.27,153.41,1093.21,153.41z"/>
	
		<radialGradient id="SVGID_00000085934740672159281890000004446839741783766937_" cx="1542.3191" cy="73.4894" r="619.0065" gradientUnits="userSpaceOnUse">
		<stop  offset="0.1176" style="stop-color:#FFFFFF"/>
		<stop  offset="0.2743" style="stop-color:#FF6EA3"/>
		<stop  offset="0.6085" style="stop-color:#B14BAD"/>
		<stop  offset="0.7874" style="stop-color:#8655C5"/>
		<stop  offset="0.9698" style="stop-color:#5161E2"/>
		<stop  offset="0.9989" style="stop-color:#4863E7"/>
	</radialGradient>
	<path style="fill:url(#SVGID_00000085934740672159281890000004446839741783766937_);" d="M1112.16,135.31
		c0-23.52,19.63-42.31,42.98-42.47c10.15,0,19.63,3.72,26.91,9.31c3.89,3.05,4.57,8.8,1.86,12.52c-3.38,4.06-8.8,4.74-12.69,1.69
		c-4.4-3.22-9.81-5.42-16.08-5.42c-13.71,0-25.04,11.34-25.04,24.37c0,13.03,11.34,24.2,25.04,24.2c6.09,0,11.68-2.2,16.08-5.42
		c3.72-2.88,9.31-2.2,12.69,1.86c2.71,3.72,2.03,9.14-1.86,12.52c-7.28,5.25-16.75,8.97-26.91,8.97
		C1131.79,177.44,1112.16,158.49,1112.16,135.31z"/>
	
		<radialGradient id="SVGID_00000001666223510983028300000004280176319370524308_" cx="1542.3191" cy="73.4894" r="619.0065" gradientUnits="userSpaceOnUse">
		<stop  offset="0.1176" style="stop-color:#FFFFFF"/>
		<stop  offset="0.2743" style="stop-color:#FF6EA3"/>
		<stop  offset="0.6085" style="stop-color:#B14BAD"/>
		<stop  offset="0.7874" style="stop-color:#8655C5"/>
		<stop  offset="0.9698" style="stop-color:#5161E2"/>
		<stop  offset="0.9989" style="stop-color:#4863E7"/>
	</radialGradient>
	<path style="fill:url(#SVGID_00000001666223510983028300000004280176319370524308_);" d="M1219.95,165.09
		c-7.28-7.45-11.68-17.94-11.68-29.78c0-11.51,4.4-21.49,11.68-29.61c7.62-7.95,17.43-12.86,29.11-12.86
		c11.17,0,21.32,4.91,28.26,12.86c7.62,8.12,11.85,18.11,11.85,29.61c0,11.85-4.23,22.34-11.85,29.78
		c-6.94,7.95-17.09,12.86-28.26,12.86C1237.38,177.95,1227.57,173.04,1219.95,165.09z M1226.72,135.31c0,7.28,2.2,13.2,6.09,17.94
		c4.23,4.06,9.82,6.26,16.25,6.26c5.92,0,11.34-2.2,15.57-6.26c4.23-4.74,6.6-10.66,6.6-17.94c0-6.94-2.37-13.03-6.6-17.6
		c-4.23-3.72-9.65-6.43-15.57-6.43c-6.43,0-12.01,2.71-16.25,6.43C1228.92,122.28,1226.72,128.37,1226.72,135.31z"/>
	
		<radialGradient id="SVGID_00000050644991008473669870000004051830808010538157_" cx="1542.3191" cy="73.4894" r="619.0065" gradientUnits="userSpaceOnUse">
		<stop  offset="0.1176" style="stop-color:#FFFFFF"/>
		<stop  offset="0.2743" style="stop-color:#FF6EA3"/>
		<stop  offset="0.6085" style="stop-color:#B14BAD"/>
		<stop  offset="0.7874" style="stop-color:#8655C5"/>
		<stop  offset="0.9698" style="stop-color:#5161E2"/>
		<stop  offset="0.9989" style="stop-color:#4863E7"/>
	</radialGradient>
	<path style="fill:url(#SVGID_00000050644991008473669870000004051830808010538157_);" d="M1388.66,127.86c0,0.17,0,0.34,0,0.51
		v40.1c0,4.91-4.06,8.97-8.97,8.97c-4.74,0-9.14-4.06-9.14-8.97v-40.1c0-0.17,0-0.34,0-0.51c-0.17-9.31-7.95-16.92-17.43-16.92
		c-9.31,0-17.09,7.78-17.09,17.43v40.1c0,0.34-0.17,0.85-0.17,1.18c0,0.17,0,0.51,0,0.51c-0.17,0.34-0.17,0.68-0.51,1.02
		c0,0.17,0,0.51,0,0.85c-1.52,3.05-4.91,5.42-8.46,5.42c-0.68,0-1.18-0.17-1.69-0.17c-4.06-1.02-7.28-4.4-7.28-8.8v-40.1
		c0-0.17,0-0.17,0-0.17v-26.23c0-5.25,4.06-9.14,8.97-9.14c3.55,0,6.77,1.86,8.12,5.08c5.42-3.22,11.68-5.08,18.11-5.08
		c10.66,0,20.14,4.4,26.57,11.68c6.26-7.28,15.91-11.68,26.57-11.68c19.46,0,35.2,15.91,35.2,35.54v40.1c0,4.91-4.06,8.97-8.97,8.97
		c-4.91,0-9.14-4.06-9.14-8.97v-40.1c0-9.65-7.78-17.43-17.09-17.43C1396.62,110.94,1389,118.55,1388.66,127.86z"/>
</g>
<g>
	<g>
		<g>
			<g>
				<g>
					<g>
						
							<radialGradient id="SVGID_00000056400625197330082710000010841401389990738853_" cx="111.3654" cy="-89.8022" r="116.434" gradientTransform="matrix(1 0 0 1 0 202)" gradientUnits="userSpaceOnUse">
							<stop  offset="0.064" style="stop-color:#FFFFFF"/>
							<stop  offset="0.1546" style="stop-color:#FFBDD5"/>
							<stop  offset="0.2449" style="stop-color:#FF84B1"/>
							<stop  offset="0.3311" style="stop-color:#FF5493"/>
							<stop  offset="0.4126" style="stop-color:#FF307B"/>
							<stop  offset="0.4883" style="stop-color:#FF156B"/>
							<stop  offset="0.5559" style="stop-color:#FF0661"/>
							<stop  offset="0.6087" style="stop-color:#FF005D"/>
							<stop  offset="0.7033" style="stop-color:#FC005A"/>
							<stop  offset="0.7774" style="stop-color:#F20050"/>
							<stop  offset="0.8445" style="stop-color:#E10040"/>
							<stop  offset="0.9075" style="stop-color:#CA002A"/>
							<stop  offset="0.967" style="stop-color:#AC000D"/>
							<stop  offset="0.9891" style="stop-color:#9F0000"/>
						</radialGradient>
						
							<path id="SVGID_00000109715932428520295650000011710302945453947520_" style="fill:url(#SVGID_00000056400625197330082710000010841401389990738853_);" d="
							M87.96,77.82c0,7.4-0.8,14.9,0.2,22.2c1.7,12.8,8.7,23.3,16.4,33.3c9.7,12.7,17.9,25.9,16.6,43c-1.7,22.2-18.7,40-40.2,41.4
							c-21.9,1.4-41-13.4-45.6-35.4c-2.9-13.5-0.8-26.4,4-39C49.06,117.32,66.36,96.42,87.96,77.82z"/>
					</g>
				</g>
			</g>
		</g>
	</g>
	<g>
		<g>
			<g>
				<g>
					<g>
						
							<radialGradient id="SVGID_00000037690198308624128010000003561440148727659674_" cx="59.4774" cy="-126.849" r="116.434" gradientTransform="matrix(-1 0 0 -1 173.0119 14.9915)" gradientUnits="userSpaceOnUse">
							<stop  offset="0.064" style="stop-color:#FFFFFF"/>
							<stop  offset="0.1546" style="stop-color:#FFBDD5"/>
							<stop  offset="0.2449" style="stop-color:#FF84B1"/>
							<stop  offset="0.3311" style="stop-color:#FF5493"/>
							<stop  offset="0.4126" style="stop-color:#FF307B"/>
							<stop  offset="0.4883" style="stop-color:#FF156B"/>
							<stop  offset="0.5559" style="stop-color:#FF0661"/>
							<stop  offset="0.6087" style="stop-color:#FF005D"/>
							<stop  offset="0.7033" style="stop-color:#FC005A"/>
							<stop  offset="0.7774" style="stop-color:#F20050"/>
							<stop  offset="0.8445" style="stop-color:#E10040"/>
							<stop  offset="0.9075" style="stop-color:#CA002A"/>
							<stop  offset="0.967" style="stop-color:#AC000D"/>
							<stop  offset="0.9891" style="stop-color:#9F0000"/>
						</radialGradient>
						
							<path id="SVGID_00000114046897860253808720000010773529503828305599_" style="fill:url(#SVGID_00000037690198308624128010000003561440148727659674_);" d="
							M136.94,176.22c0-7.4,0.8-14.9-0.2-22.2c-1.7-12.8-8.7-23.3-16.4-33.3c-9.7-12.7-17.9-25.9-16.6-43
							c1.7-22.2,18.7-40,40.2-41.4c21.9-1.4,41,13.4,45.6,35.4c2.9,13.5,0.8,26.4-4,39C175.84,136.72,158.54,157.62,136.94,176.22z"
							/>
					</g>
				</g>
			</g>
		</g>
	</g>
</g>
<g>
	
		<radialGradient id="SVGID_00000114046594739067592240000000809921956212071570_" cx="750.0848" cy="465.3404" r="566.3851" gradientTransform="matrix(1 0 0 -1 0 260)" gradientUnits="userSpaceOnUse">
		<stop  offset="0" style="stop-color:#FFFFFF"/>
		<stop  offset="0.1013" style="stop-color:#FFBDD5"/>
		<stop  offset="0.2021" style="stop-color:#FF84B1"/>
		<stop  offset="0.2985" style="stop-color:#FF5493"/>
		<stop  offset="0.3896" style="stop-color:#FF307B"/>
		<stop  offset="0.4741" style="stop-color:#FF156B"/>
		<stop  offset="0.5496" style="stop-color:#FF0661"/>
		<stop  offset="0.6087" style="stop-color:#FF005D"/>
		<stop  offset="0.7033" style="stop-color:#FC005A"/>
		<stop  offset="0.7774" style="stop-color:#F20050"/>
		<stop  offset="0.8445" style="stop-color:#E10040"/>
		<stop  offset="0.9075" style="stop-color:#CA002A"/>
		<stop  offset="0.967" style="stop-color:#AC000D"/>
		<stop  offset="0.9891" style="stop-color:#9F0000"/>
	</radialGradient>
	<path style="fill:url(#SVGID_00000114046594739067592240000000809921956212071570_);" d="M241.4-106.2c0-32.2,26.6-57.8,59-57.8
		c13.6,0,26.6,4.6,36.5,12.5c4.2,3,4.8,9,1.8,13c-3,3.8-9,4.6-13,1.4c-6.9-5.3-15.7-8.6-25.3-8.6c-11.5,0-21.6,4.3-28.8,11.7
		c-7.5,7.2-12,17-12,27.8c0,10.6,4.5,20.3,12,27.5c7.2,7.4,17.3,11.7,28.8,11.7c8,0,15.5-2.4,21.9-6.1V-95h-22.9
		c-5,0-9.1-4.2-9.1-9.1c0-5.1,4.2-9,9.1-9H331c0.2,0,0.2,0,0.2,0c0.2,0,0.2,0,0.2,0c5.1,0,9.3,3.8,9.3,9v35.4c0,1.1-0.3,1.8-0.5,2.7
		c-0.2,0.3-0.2,0.5-0.3,0.8v0.2c-0.5,1.4-1.4,2.7-3,3.8c-10.1,7.8-22.7,12.5-36.3,12.5C268-48.8,241.4-74.2,241.4-106.2z"/>
	
		<radialGradient id="SVGID_00000080207627327019698360000009728641445028172962_" cx="750.0848" cy="465.3404" r="566.3851" gradientTransform="matrix(1 0 0 -1 0 260)" gradientUnits="userSpaceOnUse">
		<stop  offset="0" style="stop-color:#FFFFFF"/>
		<stop  offset="0.1013" style="stop-color:#FFBDD5"/>
		<stop  offset="0.2021" style="stop-color:#FF84B1"/>
		<stop  offset="0.2985" style="stop-color:#FF5493"/>
		<stop  offset="0.3896" style="stop-color:#FF307B"/>
		<stop  offset="0.4741" style="stop-color:#FF156B"/>
		<stop  offset="0.5496" style="stop-color:#FF0661"/>
		<stop  offset="0.6087" style="stop-color:#FF005D"/>
		<stop  offset="0.7033" style="stop-color:#FC005A"/>
		<stop  offset="0.7774" style="stop-color:#F20050"/>
		<stop  offset="0.8445" style="stop-color:#E10040"/>
		<stop  offset="0.9075" style="stop-color:#CA002A"/>
		<stop  offset="0.967" style="stop-color:#AC000D"/>
		<stop  offset="0.9891" style="stop-color:#9F0000"/>
	</radialGradient>
	<path style="fill:url(#SVGID_00000080207627327019698360000009728641445028172962_);" d="M384.7-160.8c5,0,9,4,9,8.8v94.4
		c0,4.8-4,8.8-9,8.8c-4.8,0-8.8-4-8.8-8.8V-152C375.9-156.8,379.9-160.8,384.7-160.8z"/>
	
		<radialGradient id="SVGID_00000027599801832431468500000012159487892205556143_" cx="750.0848" cy="465.3404" r="566.3851" gradientTransform="matrix(1 0 0 -1 0 260)" gradientUnits="userSpaceOnUse">
		<stop  offset="0" style="stop-color:#FFFFFF"/>
		<stop  offset="0.1013" style="stop-color:#FFBDD5"/>
		<stop  offset="0.2021" style="stop-color:#FF84B1"/>
		<stop  offset="0.2985" style="stop-color:#FF5493"/>
		<stop  offset="0.3896" style="stop-color:#FF307B"/>
		<stop  offset="0.4741" style="stop-color:#FF156B"/>
		<stop  offset="0.5496" style="stop-color:#FF0661"/>
		<stop  offset="0.6087" style="stop-color:#FF005D"/>
		<stop  offset="0.7033" style="stop-color:#FC005A"/>
		<stop  offset="0.7774" style="stop-color:#F20050"/>
		<stop  offset="0.8445" style="stop-color:#E10040"/>
		<stop  offset="0.9075" style="stop-color:#CA002A"/>
		<stop  offset="0.967" style="stop-color:#AC000D"/>
		<stop  offset="0.9891" style="stop-color:#9F0000"/>
	</radialGradient>
	<path style="fill:url(#SVGID_00000027599801832431468500000012159487892205556143_);" d="M446.3-48.8c-18.2,0-33.3-15-33.3-33.3
		v-38.2c0-4.5,3.8-8.5,8.5-8.5c4.8,0,8.5,4,8.5,8.5v38.2c0,9.1,7.2,16.3,16.3,16.3c9.3,0,16.6-7.2,16.8-16.3v-38.2
		c0-4.5,3.5-8.5,8.3-8.5c4.5,0,8.6,4,8.6,8.5v38.2C480.1-63.8,464.7-48.8,446.3-48.8z"/>
	
		<radialGradient id="SVGID_00000133527310369267377590000010371443227666492605_" cx="750.0848" cy="465.3404" r="566.3851" gradientTransform="matrix(1 0 0 -1 0 260)" gradientUnits="userSpaceOnUse">
		<stop  offset="0" style="stop-color:#FFFFFF"/>
		<stop  offset="0.1013" style="stop-color:#FFBDD5"/>
		<stop  offset="0.2021" style="stop-color:#FF84B1"/>
		<stop  offset="0.2985" style="stop-color:#FF5493"/>
		<stop  offset="0.3896" style="stop-color:#FF307B"/>
		<stop  offset="0.4741" style="stop-color:#FF156B"/>
		<stop  offset="0.5496" style="stop-color:#FF0661"/>
		<stop  offset="0.6087" style="stop-color:#FF005D"/>
		<stop  offset="0.7033" style="stop-color:#FC005A"/>
		<stop  offset="0.7774" style="stop-color:#F20050"/>
		<stop  offset="0.8445" style="stop-color:#E10040"/>
		<stop  offset="0.9075" style="stop-color:#CA002A"/>
		<stop  offset="0.967" style="stop-color:#AC000D"/>
		<stop  offset="0.9891" style="stop-color:#9F0000"/>
	</radialGradient>
	<path style="fill:url(#SVGID_00000133527310369267377590000010371443227666492605_);" d="M507.1-88.6c0-22.2,18.6-40,40.6-40.2
		c9.6,0,18.6,3.5,25.4,8.8c3.7,2.9,4.3,8.3,1.8,11.8c-3.2,3.8-8.3,4.5-12,1.6c-4.2-3-9.3-5.1-15.2-5.1c-13,0-23.7,10.7-23.7,23
		s10.7,22.9,23.7,22.9c5.8,0,11-2.1,15.2-5.1c3.5-2.7,8.8-2.1,12,1.8c2.6,3.5,1.9,8.6-1.8,11.8c-6.9,5-15.8,8.5-25.4,8.5
		C525.7-48.8,507.1-66.7,507.1-88.6z"/>
	
		<radialGradient id="SVGID_00000134231381153159654730000016595661765297428625_" cx="750.0848" cy="465.3404" r="566.3851" gradientTransform="matrix(1 0 0 -1 0 260)" gradientUnits="userSpaceOnUse">
		<stop  offset="0" style="stop-color:#FFFFFF"/>
		<stop  offset="0.1013" style="stop-color:#FFBDD5"/>
		<stop  offset="0.2021" style="stop-color:#FF84B1"/>
		<stop  offset="0.2985" style="stop-color:#FF5493"/>
		<stop  offset="0.3896" style="stop-color:#FF307B"/>
		<stop  offset="0.4741" style="stop-color:#FF156B"/>
		<stop  offset="0.5496" style="stop-color:#FF0661"/>
		<stop  offset="0.6087" style="stop-color:#FF005D"/>
		<stop  offset="0.7033" style="stop-color:#FC005A"/>
		<stop  offset="0.7774" style="stop-color:#F20050"/>
		<stop  offset="0.8445" style="stop-color:#E10040"/>
		<stop  offset="0.9075" style="stop-color:#CA002A"/>
		<stop  offset="0.967" style="stop-color:#AC000D"/>
		<stop  offset="0.9891" style="stop-color:#9F0000"/>
	</radialGradient>
	<path style="fill:url(#SVGID_00000134231381153159654730000016595661765297428625_);" d="M609-60.5c-6.9-7-11-17-11-28.2
		c0-10.9,4.2-20.3,11-28c7.2-7.5,16.5-12.2,27.5-12.2c10.6,0,20.2,4.6,26.7,12.2c7.2,7.7,11.2,17.1,11.2,28c0,11.2-4,21.1-11.2,28.2
		c-6.6,7.5-16.2,12.2-26.7,12.2C625.5-48.3,616.2-53,609-60.5z M615.4-88.6c0,6.9,2.1,12.5,5.8,17c4,3.8,9.3,5.9,15.4,5.9
		c5.6,0,10.7-2.1,14.7-5.9c4-4.5,6.2-10.1,6.2-17c0-6.6-2.2-12.3-6.2-16.6c-4-3.5-9.1-6.1-14.7-6.1c-6.1,0-11.4,2.6-15.4,6.1
		C617.5-101,615.4-95.2,615.4-88.6z"/>
	
		<radialGradient id="SVGID_00000071522839287286509640000010931254767811823281_" cx="694.9359" cy="414.2766" r="173.6561" gradientTransform="matrix(1 0 0 -1 0 260)" gradientUnits="userSpaceOnUse">
		<stop  offset="0.1176" style="stop-color:#FFFFFF"/>
		<stop  offset="0.2743" style="stop-color:#FF6EA3"/>
		<stop  offset="0.6085" style="stop-color:#B14BAD"/>
		<stop  offset="0.7874" style="stop-color:#8655C5"/>
		<stop  offset="0.9698" style="stop-color:#5161E2"/>
		<stop  offset="0.9989" style="stop-color:#4863E7"/>
	</radialGradient>
	<path style="fill:url(#SVGID_00000071522839287286509640000010931254767811823281_);" d="M763.7-75.2h-38.9L717-54.4
		c-1.4,3.5-4.8,5.6-8.3,5.6c-1.1,0-2.1-0.2-3-0.5c-4.6-1.8-6.9-6.9-5.3-11.5l35.4-94.2c1.4-3.5,5-5.8,8.5-5.6c3.7-0.2,7,2.1,8.5,5.6
		l35.4,94.2c1.6,4.6-0.6,9.8-5.3,11.5c-0.8,0.3-1.9,0.5-3,0.5c-3.5,0-6.9-2.1-8.2-5.6L763.7-75.2z M757.2-92.8l-13-34.4l-13,34.4
		H757.2z"/>
	
		<radialGradient id="SVGID_00000008865811245790386990000014329121237607004339_" cx="694.9359" cy="414.2766" r="173.6561" gradientTransform="matrix(1 0 0 -1 0 260)" gradientUnits="userSpaceOnUse">
		<stop  offset="0" style="stop-color:#FF3A82"/>
		<stop  offset="0.1246" style="stop-color:#FA3B85"/>
		<stop  offset="0.2743" style="stop-color:#EB3E8D"/>
		<stop  offset="0.4368" style="stop-color:#D3449A"/>
		<stop  offset="0.6748" style="stop-color:#B14BAD"/>
		<stop  offset="0.7726" style="stop-color:#8655C5"/>
		<stop  offset="0.8966" style="stop-color:#5161E2"/>
		<stop  offset="0.9989" style="stop-color:#4863E7"/>
	</radialGradient>
	<path style="fill:url(#SVGID_00000008865811245790386990000014329121237607004339_);" d="M811.1-152c0-5,3.8-8.8,8.8-8.8
		c4.8,0,9,3.8,9,8.8v94.4c0,5-4.2,8.8-9,8.8c-5,0-8.8-3.8-8.8-8.8V-152z"/>
</g>
<g>
	
		<linearGradient id="SVGID_00000098221665955729333150000014350182706657014675_" gradientUnits="userSpaceOnUse" x1="795.1013" y1="-376.2567" x2="1037.9098" y2="-226.1289" gradientTransform="matrix(1 0 0 1 0 202)">
		<stop  offset="0.0784" style="stop-color:#0FC6FB"/>
		<stop  offset="0.9989" style="stop-color:#4863E7"/>
	</linearGradient>
	<path style="fill:url(#SVGID_00000098221665955729333150000014350182706657014675_);" d="M936.7-152.7c4.5,2.8,8,6.7,10.7,11.6
		c2.6,4.9,3.9,10.2,3.9,16.1s-1.3,11.3-3.9,16.2c-2.6,5-6.2,8.9-10.7,11.8c-4.5,2.9-9.3,4.3-14.6,4.3h-28v32.9c0,2-0.6,3.7-1.9,5.1
		c-1.3,1.4-2.9,2.1-4.9,2.1c-2.1,0-3.8-0.7-5-2s-1.9-3.1-1.9-5.1v-90c0-2,0.7-3.7,2.1-5.1c1.4-1.4,3.1-2.1,5.1-2.1h34.6
		C927.4-156.9,932.2-155.5,936.7-152.7z M929.5-108.9c2.3-1.7,4.1-4,5.4-6.9c1.3-2.9,2-6,2-9.2c0-5.1-1.5-9.4-4.4-12.9
		s-6.4-5.3-10.5-5.3h-28v37h28C924.8-106.3,927.3-107.1,929.5-108.9z"/>
	
		<linearGradient id="SVGID_00000026851205999023236000000006643229169232885395_" gradientUnits="userSpaceOnUse" x1="823.4557" y1="-422.1157" x2="1066.2644" y2="-271.988" gradientTransform="matrix(1 0 0 1 0 202)">
		<stop  offset="0.0784" style="stop-color:#0FC6FB"/>
		<stop  offset="0.9989" style="stop-color:#4863E7"/>
	</linearGradient>
	<path style="fill:url(#SVGID_00000026851205999023236000000006643229169232885395_);" d="M1050.7-59.8c0,2.2-0.8,4-2.5,5.4
		c-1.6,1.4-3.5,2.1-5.6,2.1c-2,0-3.7-0.9-5.2-2.7l-36.2-46.7l-16.7,15.9v25.9c0,2.1-0.7,3.8-2.1,5.2c-1.4,1.4-3.2,2.1-5.4,2.1
		s-3.9-0.7-5.3-2.1c-1.3-1.4-2-3.1-2-5.2v-89.9c0-2,0.7-3.7,2.1-5.1c1.4-1.4,3.2-2.1,5.4-2.1s3.9,0.7,5.3,2c1.3,1.3,2,3.1,2,5.1
		v46.4l53-51.2c1.9-1.7,3.8-2.5,5.7-2.5c1.8,0,3.3,0.7,4.6,2.2c1.3,1.5,1.9,3.1,1.9,4.8c0,1.5-0.7,3-2.1,4.6l-35.3,33.4l36.8,47.5
		C1050.2-63.3,1050.7-61.6,1050.7-59.8z"/>
</g>
</svg>
