<?xml version="1.0" encoding="utf-8"?>
<!-- Generator: Adobe Illustrator 27.0.0, SVG Export Plug-In . SVG Version: 6.00 Build 0)  -->
<svg version="1.1" id="Layer_1" xmlns="http://www.w3.org/2000/svg" xmlns:xlink="http://www.w3.org/1999/xlink" x="0px" y="0px"
	 viewBox="0 0 800 806.89" style="enable-background:new 0 0 800 806.89;" xml:space="preserve">
<style type="text/css">
	.st0{fill:#FFF3F3;}
</style>
<g id="XMLID_1_">
	<polygon id="XMLID_4_" class="st0" points="390.14,154.71 390.17,154.74 343.19,201.72 390.17,248.7 390.14,248.74 399.97,258.56 
		400,258.53 400,258.53 400,238.88 400,238.88 362.85,201.72 400,164.57 400,164.57 400,144.91 400,144.91 399.97,144.88 	"/>
	<polygon id="XMLID_131_" class="st0" points="390.14,361.33 390.17,361.36 348.1,403.43 348.12,403.44 348.12,403.44 
		367.75,403.44 367.75,403.44 400,371.19 400,371.19 400,371.19 400,351.54 400,351.53 399.97,351.5 	"/>
	<polygon id="XMLID_132_" class="st0" points="400,32.25 367.75,0 367.75,0 367.75,0 348.12,0 348.12,0 348.12,0 348.1,0.01 
		390.17,42.08 390.14,42.11 399.97,51.94 400,51.91 400,51.91 400,32.25 400,32.25 	"/>
	<path id="XMLID_135_" class="st0" d="M390.14,109.75l0.03,0.03l-91.18,91.18L200,101.98l-98.99,98.99L9.83,109.79l0.03-0.03
		l-9.83-9.83L0,99.96l0,0v0v19.66v0l0,0l82.11,82.11L0,283.83h0v0v19.66v0l0,0l0.03,0.03l9.83-9.83l-0.03-0.03l91.18-91.19
		L200,301.46l98.99-98.99l91.18,91.18l-0.03,0.03l9.83,9.83l0.03-0.03v0v-19.66v0l-82.11-82.11L400,119.61v0V99.96v0l-0.03-0.03
		L390.14,109.75z M200,281.8l-80.08-80.08L200,121.64l80.08,80.08L200,281.8z"/>
	<polygon id="XMLID_136_" class="st0" points="390.14,316.37 390.17,316.41 303.15,403.43 303.16,403.44 303.17,403.44 
		322.79,403.44 322.79,403.44 400,326.24 400,306.58 400,306.58 399.97,306.55 	"/>
	<polygon id="XMLID_137_" class="st0" points="200,49.88 249.87,0.01 249.85,0 249.86,0 249.85,0 230.23,0 230.23,0 230.23,0 
		200,30.23 169.77,0 169.77,0 169.77,0 150.15,0 150.14,0 150.14,0 150.13,0.01 	"/>
	<polygon id="XMLID_138_" class="st0" points="150.13,403.43 150.14,403.44 150.15,403.44 169.77,403.44 169.77,403.44 200,373.22 
		230.23,403.44 230.23,403.44 249.85,403.44 249.86,403.44 249.87,403.43 200,353.56 	"/>
	<path id="XMLID_141_" class="st0" d="M145.22,201.72L200,256.51l54.78-54.78L200,146.94L145.22,201.72z M200,236.85l-35.13-35.13
		L200,166.6l35.13,35.13L200,236.85z"/>
	<polygon id="XMLID_142_" class="st0" points="200,94.84 294.82,0.01 294.81,0 294.81,0 294.81,0 275.18,0 275.18,0 275.18,0 
		200,75.18 124.82,0 124.82,0 124.82,0 105.19,0 105.19,0 105.19,0 105.18,0.01 	"/>
	<polygon id="XMLID_143_" class="st0" points="105.18,403.43 105.19,403.44 105.19,403.44 124.82,403.44 124.82,403.44 200,328.26 
		275.18,403.44 275.18,403.44 294.81,403.44 294.81,403.44 294.82,403.43 200,308.61 	"/>
	<path id="XMLID_146_" class="st0" d="M298.99,175.67l77.26-77.26l-77.26-77.26l-77.26,77.26L298.99,175.67z M356.59,98.41
		l-57.6,57.6l-57.6-57.6l57.6-57.6L356.59,98.41z"/>
	<path id="XMLID_149_" class="st0" d="M101.01,227.77l-77.26,77.26l77.26,77.26l77.26-77.26L101.01,227.77z M43.41,305.03l57.6-57.6
		l57.6,57.6l-57.6,57.6L43.41,305.03z"/>
	<path id="XMLID_152_" class="st0" d="M298.99,227.77l-77.26,77.26l77.26,77.26l77.26-77.26L298.99,227.77z M241.38,305.03
		l57.6-57.6l57.6,57.6l-57.6,57.6L241.38,305.03z"/>
	<path id="XMLID_155_" class="st0" d="M101.01,175.67l77.26-77.26l-77.26-77.26L23.75,98.41L101.01,175.67z M158.62,98.41
		l-57.6,57.6l-57.6-57.6l57.6-57.6L158.62,98.41z"/>
	<path id="XMLID_158_" class="st0" d="M298.99,130.72l32.31-32.31l-32.31-32.3l-32.31,32.3L298.99,130.72z M311.64,98.41
		l-12.65,12.65l-12.65-12.65l12.65-12.65L311.64,98.41z"/>
	<path id="XMLID_161_" class="st0" d="M101.01,272.73l-32.31,32.31l32.31,32.31l32.31-32.31L101.01,272.73z M88.36,305.03
		l12.65-12.65l12.65,12.65l-12.65,12.65L88.36,305.03z"/>
	<path id="XMLID_164_" class="st0" d="M298.99,272.73l-32.31,32.31l32.31,32.31l32.31-32.31L298.99,272.73z M286.34,305.03
		l12.65-12.65l12.65,12.65l-12.65,12.65L286.34,305.03z"/>
	<path id="XMLID_167_" class="st0" d="M101.01,130.72l32.31-32.31l-32.31-32.3l-32.31,32.3L101.01,130.72z M113.66,98.41
		l-12.65,12.65L88.36,98.41l12.65-12.65L113.66,98.41z"/>
	<polygon id="XMLID_168_" class="st0" points="0.03,258.56 9.86,248.74 9.83,248.7 56.81,201.72 9.83,154.74 9.86,154.71 
		0.03,144.88 0,144.91 0,144.91 0,144.91 0,164.57 0,164.57 0,164.57 37.15,201.72 0,238.88 0,238.88 0,238.88 0,258.53 0,258.53 
		0,258.53 	"/>
	<polygon id="XMLID_169_" class="st0" points="0.03,51.94 9.86,42.11 9.83,42.08 51.9,0.01 51.88,0 51.88,0 51.88,0 32.25,0 
		32.25,0 32.25,0 0,32.25 0,32.25 0,51.91 0,51.91 0,51.91 	"/>
	<polygon id="XMLID_170_" class="st0" points="9.86,361.33 0.03,351.5 0,351.53 0,351.53 0,351.54 0,371.19 0,371.19 32.25,403.44 
		32.25,403.44 51.88,403.44 51.88,403.44 51.9,403.43 9.83,361.36 	"/>
	<polygon id="XMLID_171_" class="st0" points="0.03,96.9 9.86,87.07 9.83,87.04 96.85,0.01 96.84,0 96.84,0 96.84,0 77.21,0 
		77.21,0 77.21,0 0,77.21 0,96.86 0,96.87 0,96.86 	"/>
	<polygon id="XMLID_172_" class="st0" points="9.86,316.37 0.03,306.55 0,306.58 0,306.58 0,306.58 0,326.24 77.21,403.44 
		77.21,403.44 96.84,403.44 96.84,403.44 96.85,403.43 9.83,316.41 	"/>
	<polygon id="XMLID_173_" class="st0" points="322.79,0 322.79,0 303.16,0 303.16,0 303.16,0 303.15,0.01 390.17,87.04 
		390.14,87.07 399.97,96.9 400,96.87 400,96.86 400,77.21 322.79,0 	"/>
</g>
<g id="XMLID_5_">
	<polygon id="XMLID_49_" class="st0" points="790.14,154.71 790.17,154.74 743.19,201.72 790.17,248.7 790.14,248.74 799.97,258.56 
		800,258.53 800,258.53 800,238.88 800,238.88 762.85,201.72 800,164.57 800,164.57 800,144.91 800,144.91 799.97,144.88 	"/>
	<polygon id="XMLID_48_" class="st0" points="790.14,361.33 790.17,361.36 748.1,403.43 748.12,403.44 748.12,403.44 767.75,403.44 
		767.75,403.44 800,371.19 800,371.19 800,371.19 800,351.54 800,351.53 799.97,351.5 	"/>
	<polygon id="XMLID_47_" class="st0" points="800,32.25 767.75,0 767.75,0 767.75,0 748.12,0 748.12,0 748.12,0 748.1,0.01 
		790.17,42.08 790.14,42.11 799.97,51.94 800,51.91 800,51.91 800,32.25 800,32.25 	"/>
	<path id="XMLID_44_" class="st0" d="M790.14,109.75l0.03,0.03l-91.18,91.18L600,101.98l-98.99,98.99l-91.18-91.18l0.03-0.03
		l-9.83-9.83L400,99.96l0,0v0v19.66v0l0,0l82.11,82.11L400,283.83h0v0v19.66v0l0,0l0.03,0.03l9.83-9.83l-0.03-0.03l91.18-91.19
		L600,301.46l98.99-98.99l91.18,91.18l-0.03,0.03l9.83,9.83l0.03-0.03v0v-19.66v0l-82.11-82.11L800,119.61v0V99.96v0l-0.03-0.03
		L790.14,109.75z M600,281.8l-80.08-80.08L600,121.64l80.08,80.08L600,281.8z"/>
	<polygon id="XMLID_43_" class="st0" points="790.14,316.37 790.17,316.41 703.15,403.43 703.16,403.44 703.16,403.44 
		722.79,403.44 722.79,403.44 800,326.24 800,306.58 800,306.58 799.97,306.55 	"/>
	<polygon id="XMLID_42_" class="st0" points="600,49.88 649.87,0.01 649.85,0 649.86,0 649.85,0 630.23,0 630.23,0 630.23,0 
		600,30.23 569.77,0 569.77,0 569.77,0 550.14,0 550.14,0 550.14,0 550.13,0.01 	"/>
	<polygon id="XMLID_41_" class="st0" points="550.13,403.43 550.14,403.44 550.15,403.44 569.77,403.44 569.77,403.44 600,373.22 
		630.23,403.44 630.23,403.44 649.85,403.44 649.86,403.44 649.87,403.43 600,353.56 	"/>
	<path id="XMLID_38_" class="st0" d="M545.22,201.72L600,256.51l54.78-54.78L600,146.94L545.22,201.72z M600,236.85l-35.13-35.13
		L600,166.6l35.13,35.13L600,236.85z"/>
	<polygon id="XMLID_37_" class="st0" points="600,94.84 694.82,0.01 694.81,0 694.81,0 694.81,0 675.18,0 675.18,0 675.18,0 
		600,75.18 524.82,0 524.82,0 524.82,0 505.19,0 505.19,0 505.19,0 505.17,0.01 	"/>
	<polygon id="XMLID_36_" class="st0" points="505.17,403.43 505.19,403.44 505.19,403.44 524.82,403.44 524.82,403.44 600,328.26 
		675.18,403.44 675.18,403.44 694.81,403.44 694.81,403.44 694.82,403.43 600,308.61 	"/>
	<path id="XMLID_33_" class="st0" d="M698.99,175.67l77.26-77.26l-77.26-77.26l-77.26,77.26L698.99,175.67z M756.59,98.41
		l-57.6,57.6l-57.6-57.6l57.6-57.6L756.59,98.41z"/>
	<path id="XMLID_30_" class="st0" d="M501.01,227.77l-77.26,77.26l77.26,77.26l77.26-77.26L501.01,227.77z M443.41,305.03l57.6-57.6
		l57.6,57.6l-57.6,57.6L443.41,305.03z"/>
	<path id="XMLID_27_" class="st0" d="M698.99,227.77l-77.26,77.26l77.26,77.26l77.26-77.26L698.99,227.77z M641.38,305.03l57.6-57.6
		l57.6,57.6l-57.6,57.6L641.38,305.03z"/>
	<path id="XMLID_24_" class="st0" d="M501.01,175.67l77.26-77.26l-77.26-77.26l-77.26,77.26L501.01,175.67z M558.62,98.41
		l-57.6,57.6l-57.6-57.6l57.6-57.6L558.62,98.41z"/>
	<path id="XMLID_21_" class="st0" d="M698.99,130.72l32.31-32.31l-32.31-32.3l-32.31,32.3L698.99,130.72z M711.63,98.41
		l-12.65,12.65l-12.65-12.65l12.65-12.65L711.63,98.41z"/>
	<path id="XMLID_18_" class="st0" d="M501.01,272.73l-32.31,32.31l32.31,32.31l32.31-32.31L501.01,272.73z M488.36,305.03
		l12.65-12.65l12.65,12.65l-12.65,12.65L488.36,305.03z"/>
	<path id="XMLID_15_" class="st0" d="M698.99,272.73l-32.31,32.31l32.31,32.31l32.31-32.31L698.99,272.73z M686.34,305.03
		l12.65-12.65l12.65,12.65l-12.65,12.65L686.34,305.03z"/>
	<path id="XMLID_12_" class="st0" d="M501.01,130.72l32.31-32.31l-32.31-32.3l-32.31,32.3L501.01,130.72z M513.66,98.41
		l-12.65,12.65l-12.65-12.65l12.65-12.65L513.66,98.41z"/>
	<polygon id="XMLID_11_" class="st0" points="400.03,258.56 409.86,248.74 409.83,248.7 456.81,201.72 409.83,154.74 409.86,154.71 
		400.03,144.88 400,144.91 400,144.91 400,144.91 400,164.57 400,164.57 400,164.57 437.15,201.72 400,238.88 400,238.88 
		400,238.88 400,258.53 400,258.53 400,258.53 	"/>
	<polygon id="XMLID_10_" class="st0" points="400.03,51.94 409.86,42.11 409.83,42.08 451.9,0.01 451.88,0 451.88,0 451.88,0 
		432.25,0 432.25,0 432.25,0 400,32.25 400,32.25 400,51.91 400,51.91 400,51.91 	"/>
	<polygon id="XMLID_9_" class="st0" points="409.86,361.33 400.03,351.5 400,351.53 400,351.53 400,351.54 400,371.19 400,371.19 
		432.25,403.44 432.25,403.44 451.88,403.44 451.88,403.44 451.9,403.43 409.83,361.36 	"/>
	<polygon id="XMLID_8_" class="st0" points="400.03,96.9 409.86,87.07 409.83,87.04 496.85,0.01 496.84,0 496.84,0 496.84,0 
		477.21,0 477.21,0 477.21,0 400,77.21 400,96.86 400,96.87 400,96.86 	"/>
	<polygon id="XMLID_7_" class="st0" points="409.86,316.37 400.03,306.55 400,306.58 400,306.58 400,306.58 400,326.24 
		477.21,403.44 477.21,403.44 496.83,403.44 496.84,403.44 496.85,403.43 409.83,316.41 	"/>
	<polygon id="XMLID_6_" class="st0" points="722.79,0 722.79,0 703.16,0 703.16,0 703.16,0 703.15,0.01 790.17,87.04 790.14,87.07 
		799.97,96.9 800,96.87 800,96.86 800,77.21 722.79,0 	"/>
</g>
<g id="XMLID_95_">
	<polygon id="XMLID_182_" class="st0" points="390.14,558.15 390.17,558.18 343.19,605.16 390.17,652.15 390.14,652.18 
		399.97,662.01 400,661.98 400,661.97 400,642.32 400,642.32 362.85,605.16 400,568.01 400,568.01 400,548.36 400,548.35 
		399.97,548.32 	"/>
	<polygon id="XMLID_181_" class="st0" points="390.14,764.77 390.17,764.81 348.1,806.87 348.12,806.89 348.12,806.89 
		367.75,806.89 367.75,806.89 400,774.63 400,774.63 400,774.63 400,754.98 400,754.98 399.97,754.94 	"/>
	<polygon id="XMLID_180_" class="st0" points="400,435.7 367.75,403.44 367.75,403.44 367.75,403.44 348.12,403.44 348.12,403.44 
		348.12,403.44 348.1,403.46 390.17,445.52 390.14,445.56 399.97,455.39 400,455.35 400,455.35 400,435.7 400,435.7 	"/>
	<path id="XMLID_177_" class="st0" d="M390.14,513.2l0.03,0.03l-91.18,91.18L200,505.43l-98.99,98.99L9.83,513.23l0.03-0.03
		l-9.83-9.83L0,503.4l0,0v0v19.66v0l0,0l82.11,82.11L0,687.27h0v0v19.66v0l0,0l0.03,0.03l9.83-9.83l-0.03-0.03l91.18-91.19
		L200,704.9l98.99-98.99l91.18,91.18l-0.03,0.03l9.83,9.83l0.03-0.03v0v-19.66v0l-82.11-82.11L400,523.06v0V503.4v0l-0.03-0.03
		L390.14,513.2z M200,685.25l-80.08-80.08L200,525.08l80.08,80.08L200,685.25z"/>
	<polygon id="XMLID_176_" class="st0" points="390.14,719.82 390.17,719.85 303.15,806.87 303.16,806.89 303.17,806.89 
		322.79,806.89 322.79,806.89 400,729.68 400,710.02 400,710.02 399.97,709.99 	"/>
	<polygon id="XMLID_175_" class="st0" points="200,453.33 249.87,403.46 249.85,403.44 249.86,403.44 249.85,403.44 230.23,403.44 
		230.23,403.44 230.23,403.44 200,433.67 169.77,403.44 169.77,403.44 169.77,403.44 150.15,403.44 150.14,403.44 150.14,403.44 
		150.13,403.46 	"/>
	<polygon id="XMLID_174_" class="st0" points="150.13,806.87 150.14,806.89 150.15,806.89 169.77,806.89 169.77,806.89 200,776.66 
		230.23,806.89 230.23,806.89 249.85,806.89 249.86,806.89 249.87,806.87 200,757 	"/>
	<path id="XMLID_128_" class="st0" d="M145.22,605.16L200,659.95l54.78-54.78L200,550.38L145.22,605.16z M200,640.29l-35.13-35.13
		L200,570.04l35.13,35.13L200,640.29z"/>
	<polygon id="XMLID_127_" class="st0" points="200,498.28 294.82,403.46 294.81,403.44 294.81,403.44 294.81,403.44 275.18,403.44 
		275.18,403.44 275.18,403.44 200,478.62 124.82,403.44 124.82,403.44 124.82,403.44 105.19,403.44 105.19,403.44 105.19,403.44 
		105.18,403.46 	"/>
	<polygon id="XMLID_126_" class="st0" points="105.18,806.87 105.19,806.89 105.19,806.89 124.82,806.89 124.82,806.89 200,731.71 
		275.18,806.89 275.18,806.89 294.81,806.89 294.81,806.89 294.82,806.87 200,712.05 	"/>
	<path id="XMLID_123_" class="st0" d="M298.99,579.12l77.26-77.26l-77.26-77.26l-77.26,77.26L298.99,579.12z M356.59,501.85
		l-57.6,57.6l-57.6-57.6l57.6-57.6L356.59,501.85z"/>
	<path id="XMLID_120_" class="st0" d="M101.01,631.22l-77.26,77.26l77.26,77.26l77.26-77.26L101.01,631.22z M43.41,708.48l57.6-57.6
		l57.6,57.6l-57.6,57.6L43.41,708.48z"/>
	<path id="XMLID_117_" class="st0" d="M298.99,631.22l-77.26,77.26l77.26,77.26l77.26-77.26L298.99,631.22z M241.38,708.48
		l57.6-57.6l57.6,57.6l-57.6,57.6L241.38,708.48z"/>
	<path id="XMLID_114_" class="st0" d="M101.01,579.12l77.26-77.26l-77.26-77.26l-77.26,77.26L101.01,579.12z M158.62,501.85
		l-57.6,57.6l-57.6-57.6l57.6-57.6L158.62,501.85z"/>
	<path id="XMLID_111_" class="st0" d="M298.99,534.16l32.31-32.31l-32.31-32.3l-32.31,32.3L298.99,534.16z M311.64,501.85
		l-12.65,12.65l-12.65-12.65l12.65-12.65L311.64,501.85z"/>
	<path id="XMLID_108_" class="st0" d="M101.01,676.17l-32.31,32.31l32.31,32.31l32.31-32.31L101.01,676.17z M88.36,708.48
		l12.65-12.65l12.65,12.65l-12.65,12.65L88.36,708.48z"/>
	<path id="XMLID_105_" class="st0" d="M298.99,676.17l-32.31,32.31l32.31,32.31l32.31-32.31L298.99,676.17z M286.34,708.48
		l12.65-12.65l12.65,12.65l-12.65,12.65L286.34,708.48z"/>
	<path id="XMLID_102_" class="st0" d="M101.01,534.16l32.31-32.31l-32.31-32.3l-32.31,32.3L101.01,534.16z M113.66,501.85
		l-12.65,12.65l-12.65-12.65l12.65-12.65L113.66,501.85z"/>
	<polygon id="XMLID_101_" class="st0" points="0.03,662.01 9.86,652.18 9.83,652.15 56.81,605.16 9.83,558.18 9.86,558.15 
		0.03,548.32 0,548.36 0,548.35 0,548.36 0,568.01 0,568.01 0,568.01 37.15,605.16 0,642.32 0,642.32 0,642.32 0,661.97 0,661.98 
		0,661.97 	"/>
	<polygon id="XMLID_100_" class="st0" points="0.03,455.39 9.86,445.56 9.83,445.52 51.9,403.46 51.88,403.44 51.88,403.44 
		51.88,403.44 32.25,403.44 32.25,403.44 32.25,403.44 0,435.7 0,435.7 0,455.35 0,455.35 0,455.35 	"/>
	<polygon id="XMLID_99_" class="st0" points="9.86,764.77 0.03,754.94 0,754.98 0,754.98 0,754.98 0,774.63 0,774.63 32.25,806.89 
		32.25,806.89 51.88,806.89 51.88,806.89 51.9,806.87 9.83,764.81 	"/>
	<polygon id="XMLID_98_" class="st0" points="0.03,500.34 9.86,490.51 9.83,490.48 96.85,403.46 96.84,403.44 96.84,403.44 
		96.84,403.44 77.21,403.44 77.21,403.44 77.21,403.44 0,480.65 0,500.31 0,500.31 0,500.31 	"/>
	<polygon id="XMLID_97_" class="st0" points="9.86,719.82 0.03,709.99 0,710.02 0,710.02 0,710.02 0,729.68 77.21,806.89 
		77.21,806.89 96.84,806.89 96.84,806.89 96.85,806.87 9.83,719.85 	"/>
	<polygon id="XMLID_96_" class="st0" points="322.79,403.44 322.79,403.44 303.16,403.44 303.16,403.44 303.16,403.44 
		303.15,403.46 390.17,490.48 390.14,490.51 399.97,500.34 400,500.31 400,500.31 400,480.65 322.79,403.44 	"/>
</g>
<g id="XMLID_50_">
	<polygon id="XMLID_94_" class="st0" points="790.14,558.15 790.17,558.18 743.19,605.16 790.17,652.15 790.14,652.18 
		799.97,662.01 800,661.98 800,661.97 800,642.32 800,642.32 762.85,605.16 800,568.01 800,568.01 800,548.36 800,548.35 
		799.97,548.32 	"/>
	<polygon id="XMLID_93_" class="st0" points="790.14,764.77 790.17,764.81 748.1,806.87 748.12,806.89 748.12,806.89 767.75,806.89 
		767.75,806.89 800,774.63 800,774.63 800,774.63 800,754.98 800,754.98 799.97,754.94 	"/>
	<polygon id="XMLID_92_" class="st0" points="800,435.7 767.75,403.44 767.75,403.44 767.75,403.44 748.12,403.44 748.12,403.44 
		748.12,403.44 748.1,403.46 790.17,445.52 790.14,445.56 799.97,455.39 800,455.35 800,455.35 800,435.7 800,435.7 	"/>
	<path id="XMLID_89_" class="st0" d="M790.14,513.2l0.03,0.03l-91.18,91.18L600,505.43l-98.99,98.99l-91.18-91.18l0.03-0.03
		l-9.83-9.83L400,503.4l0,0v0v19.66v0l0,0l82.11,82.11L400,687.27h0v0v19.66v0l0,0l0.03,0.03l9.83-9.83l-0.03-0.03l91.18-91.19
		L600,704.9l98.99-98.99l91.18,91.18l-0.03,0.03l9.83,9.83l0.03-0.03v0v-19.66v0l-82.11-82.11L800,523.06v0V503.4v0l-0.03-0.03
		L790.14,513.2z M600,685.25l-80.08-80.08L600,525.08l80.08,80.08L600,685.25z"/>
	<polygon id="XMLID_88_" class="st0" points="790.14,719.82 790.17,719.85 703.15,806.87 703.16,806.89 703.16,806.89 
		722.79,806.89 722.79,806.89 800,729.68 800,710.02 800,710.02 799.97,709.99 	"/>
	<polygon id="XMLID_87_" class="st0" points="600,453.33 649.87,403.46 649.85,403.44 649.86,403.44 649.85,403.44 630.23,403.44 
		630.23,403.44 630.23,403.44 600,433.67 569.77,403.44 569.77,403.44 569.77,403.44 550.14,403.44 550.14,403.44 550.14,403.44 
		550.13,403.46 	"/>
	<polygon id="XMLID_86_" class="st0" points="550.13,806.87 550.14,806.89 550.15,806.89 569.77,806.89 569.77,806.89 600,776.66 
		630.23,806.89 630.23,806.89 649.85,806.89 649.86,806.89 649.87,806.87 600,757 	"/>
	<path id="XMLID_83_" class="st0" d="M545.22,605.16L600,659.95l54.78-54.78L600,550.38L545.22,605.16z M600,640.29l-35.13-35.13
		L600,570.04l35.13,35.13L600,640.29z"/>
	<polygon id="XMLID_82_" class="st0" points="600,498.28 694.82,403.46 694.81,403.44 694.81,403.44 694.81,403.44 675.18,403.44 
		675.18,403.44 675.18,403.44 600,478.62 524.82,403.44 524.82,403.44 524.82,403.44 505.19,403.44 505.19,403.44 505.19,403.44 
		505.17,403.46 	"/>
	<polygon id="XMLID_81_" class="st0" points="505.17,806.87 505.19,806.89 505.19,806.89 524.82,806.89 524.82,806.89 600,731.71 
		675.18,806.89 675.18,806.89 694.81,806.89 694.81,806.89 694.82,806.87 600,712.05 	"/>
	<path id="XMLID_78_" class="st0" d="M698.99,579.12l77.26-77.26l-77.26-77.26l-77.26,77.26L698.99,579.12z M756.59,501.85
		l-57.6,57.6l-57.6-57.6l57.6-57.6L756.59,501.85z"/>
	<path id="XMLID_75_" class="st0" d="M501.01,631.22l-77.26,77.26l77.26,77.26l77.26-77.26L501.01,631.22z M443.41,708.48l57.6-57.6
		l57.6,57.6l-57.6,57.6L443.41,708.48z"/>
	<path id="XMLID_72_" class="st0" d="M698.99,631.22l-77.26,77.26l77.26,77.26l77.26-77.26L698.99,631.22z M641.38,708.48l57.6-57.6
		l57.6,57.6l-57.6,57.6L641.38,708.48z"/>
	<path id="XMLID_69_" class="st0" d="M501.01,579.12l77.26-77.26l-77.26-77.26l-77.26,77.26L501.01,579.12z M558.62,501.85
		l-57.6,57.6l-57.6-57.6l57.6-57.6L558.62,501.85z"/>
	<path id="XMLID_66_" class="st0" d="M698.99,534.16l32.31-32.31l-32.31-32.3l-32.31,32.3L698.99,534.16z M711.63,501.85
		l-12.65,12.65l-12.65-12.65l12.65-12.65L711.63,501.85z"/>
	<path id="XMLID_63_" class="st0" d="M501.01,676.17l-32.31,32.31l32.31,32.31l32.31-32.31L501.01,676.17z M488.36,708.48
		l12.65-12.65l12.65,12.65l-12.65,12.65L488.36,708.48z"/>
	<path id="XMLID_60_" class="st0" d="M698.99,676.17l-32.31,32.31l32.31,32.31l32.31-32.31L698.99,676.17z M686.34,708.48
		l12.65-12.65l12.65,12.65l-12.65,12.65L686.34,708.48z"/>
	<path id="XMLID_57_" class="st0" d="M501.01,534.16l32.31-32.31l-32.31-32.3l-32.31,32.3L501.01,534.16z M513.66,501.85
		l-12.65,12.65l-12.65-12.65l12.65-12.65L513.66,501.85z"/>
	<polygon id="XMLID_56_" class="st0" points="400.03,662.01 409.86,652.18 409.83,652.15 456.81,605.16 409.83,558.18 
		409.86,558.15 400.03,548.32 400,548.36 400,548.35 400,548.36 400,568.01 400,568.01 400,568.01 437.15,605.16 400,642.32 
		400,642.32 400,642.32 400,661.97 400,661.98 400,661.97 	"/>
	<polygon id="XMLID_55_" class="st0" points="400.03,455.39 409.86,445.56 409.83,445.52 451.9,403.46 451.88,403.44 451.88,403.44 
		451.88,403.44 432.25,403.44 432.25,403.44 432.25,403.44 400,435.7 400,435.7 400,455.35 400,455.35 400,455.35 	"/>
	<polygon id="XMLID_54_" class="st0" points="409.86,764.77 400.03,754.94 400,754.98 400,754.98 400,754.98 400,774.63 400,774.63 
		432.25,806.89 432.25,806.89 451.88,806.89 451.88,806.89 451.9,806.87 409.83,764.81 	"/>
	<polygon id="XMLID_53_" class="st0" points="400.03,500.34 409.86,490.51 409.83,490.48 496.85,403.46 496.84,403.44 
		496.84,403.44 496.84,403.44 477.21,403.44 477.21,403.44 477.21,403.44 400,480.65 400,500.31 400,500.31 400,500.31 	"/>
	<polygon id="XMLID_52_" class="st0" points="409.86,719.82 400.03,709.99 400,710.02 400,710.02 400,710.02 400,729.68 
		477.21,806.89 477.21,806.89 496.83,806.89 496.84,806.89 496.85,806.87 409.83,719.85 	"/>
	<polygon id="XMLID_51_" class="st0" points="722.79,403.44 722.79,403.44 703.16,403.44 703.16,403.44 703.16,403.44 
		703.15,403.46 790.17,490.48 790.14,490.51 799.97,500.34 800,500.31 800,500.31 800,480.65 722.79,403.44 	"/>
</g>
</svg>
